<svg width="24" height="17" viewBox="0 0 24 17" fill="none" xmlns="http://www.w3.org/2000/svg">
<path d="M2.862 11.1315H3.7968L4.4628 9.29066H7.9068L8.58 11.1327H9.5304L6.7584 3.76106H5.61L2.862 11.1315ZM4.806 8.41106L6.1548 4.73906H6.2148L7.5624 8.41106H4.806ZM14.262 5.73506V4.61786C14.906 4.29146 15.596 4.04666 16.332 3.88346C17.068 3.72026 17.824 3.63866 18.6 3.63866C19.0432 3.63866 19.4688 3.66706 19.8768 3.72386C20.284 3.78146 20.7048 3.86226 21.1392 3.96626V5.05586C20.72 4.92226 20.312 4.82946 19.9152 4.77746C19.5168 4.72626 19.0784 4.70066 18.6 4.70066C17.824 4.70066 17.0672 4.78786 16.3296 4.96226C15.5904 5.13666 14.9008 5.39386 14.2608 5.73386M14.2608 12.2883V11.1243C14.8752 10.7987 15.562 10.5543 16.3212 10.3911C17.0804 10.2279 17.84 10.1463 18.6 10.1463C19.0432 10.1463 19.4688 10.1751 19.8768 10.2327C20.284 10.2887 20.7048 10.3691 21.1392 10.4739V11.5635C20.72 11.4299 20.312 11.3371 19.9152 11.2851C19.5168 11.2339 19.0784 11.2083 18.6 11.2083C17.824 11.2083 17.0672 11.3023 16.3296 11.4903C15.5904 11.6775 14.9008 11.9435 14.2608 12.2883ZM14.2608 9.03386V7.87106C14.9056 7.54466 15.596 7.30026 16.332 7.13786C17.068 6.97546 17.824 6.89386 18.6 6.89306C19.0432 6.89306 19.4684 6.92106 19.8756 6.97706C20.2836 7.03466 20.7044 7.11586 21.138 7.22066V8.31026C20.7196 8.17586 20.3116 8.08306 19.914 8.03186C19.5164 7.97986 19.0784 7.95386 18.6 7.95386C17.824 7.95386 17.0672 8.04906 16.3296 8.23946C15.5904 8.42906 14.9008 8.69386 14.2608 9.03386ZM5.4 13.4691C6.448 13.4691 7.4668 13.5895 8.4564 13.8303C9.446 14.0711 10.4272 14.4631 11.4 15.0063V3.23306C10.5336 2.61466 9.5792 2.15066 8.5368 1.84106C7.4928 1.53226 6.4472 1.37786 5.4 1.37786C4.68 1.37786 4.0496 1.42066 3.5088 1.50626C2.968 1.59186 2.3676 1.75186 1.7076 1.98626C1.5236 2.04786 1.3928 2.13666 1.3152 2.25266C1.2384 2.36786 1.2 2.49466 1.2 2.63306V13.4511C1.2 13.6671 1.2768 13.8247 1.4304 13.9239C1.584 14.0231 1.7532 14.0351 1.938 13.9599C2.3764 13.8119 2.8832 13.6931 3.4584 13.6035C4.0336 13.5139 4.6808 13.4683 5.4 13.4691ZM12.6 15.0063C13.5728 14.4639 14.554 14.0719 15.5436 13.8303C16.5332 13.5887 17.552 13.4687 18.6 13.4703C19.32 13.4703 19.9672 13.5147 20.5416 13.6035C21.116 13.6923 21.6228 13.8107 22.062 13.9587C22.246 14.0355 22.4152 14.0239 22.5696 13.9239C22.724 13.8239 22.8008 13.6663 22.8 13.4511V2.63306C22.8 2.49466 22.7616 2.37146 22.6848 2.26346C22.608 2.15626 22.4772 2.06426 22.2924 1.98746C21.6324 1.75306 21.032 1.59306 20.4912 1.50746C19.9504 1.42186 19.32 1.37826 18.6 1.37666C17.552 1.37666 16.5068 1.53106 15.4644 1.83986C14.4212 2.14946 13.4664 2.61346 12.6 3.23186V15.0063ZM12 16.7463C11.024 16.0791 9.976 15.5663 8.856 15.2079C7.736 14.8495 6.584 14.6703 5.4 14.6703C4.776 14.6703 4.1624 14.7223 3.5592 14.8263C2.9568 14.9311 2.3704 15.0991 1.8 15.3303C1.3648 15.5039 0.956 15.4515 0.5736 15.1731C0.1912 14.8947 0 14.5099 0 14.0187V2.42066C0 2.12386 0.0779999 1.84826 0.234 1.59386C0.39 1.33946 0.6088 1.16266 0.8904 1.06346C1.5952 0.753056 2.3284 0.527857 3.09 0.387857C3.8516 0.247857 4.6216 0.177856 5.4 0.177856C6.576 0.177856 7.7224 0.347057 8.8392 0.685457C9.9576 1.02386 11.0112 1.51586 12 2.16146C12.9896 1.51586 14.0432 1.02386 15.1608 0.685457C16.2784 0.347057 17.4248 0.177856 18.6 0.177856C19.3784 0.177856 20.1484 0.247857 20.91 0.387857C21.6716 0.527857 22.4048 0.753056 23.1096 1.06346C23.3912 1.16346 23.61 1.34026 23.766 1.59386C23.922 1.84746 24 2.12306 24 2.42066V14.0187C24 14.5099 23.7936 14.8871 23.3808 15.1503C22.9672 15.4127 22.5272 15.4571 22.0608 15.2835C21.5064 15.0675 20.9392 14.9115 20.3592 14.8155C19.78 14.7187 19.1936 14.6703 18.6 14.6703C17.416 14.6703 16.264 14.8495 15.144 15.2079C14.024 15.5663 12.976 16.0791 12 16.7463Z" fill="black"/>
</svg>
